<svg width="36" height="34" viewBox="0 0 36 34" fill="none" xmlns="http://www.w3.org/2000/svg">
<mask id="mask0_124_5" style="mask-type:alpha" maskUnits="userSpaceOnUse" x="0" y="0" width="35" height="34">
<circle cx="17.0203" cy="17" r="17" fill="#D9D9D9"/>
</mask>
<g mask="url(#mask0_124_5)">
<circle cx="17.0203" cy="13" r="6" fill="#D9D9D9"/>
<path d="M33.0203 34.5C33.0203 32.8585 32.6064 31.233 31.8023 29.7165C30.9983 28.1999 29.8197 26.8219 28.334 25.6612C26.8482 24.5004 25.0844 23.5797 23.1432 22.9515C21.202 22.3233 19.1214 22 17.0203 22C14.9191 22 12.8385 22.3233 10.8973 22.9515C8.95612 23.5797 7.19229 24.5004 5.70655 25.6612C4.22082 26.8219 3.04227 28.1999 2.23819 29.7165C1.43412 31.233 1.02026 32.8585 1.02026 34.5L17.0203 34.5H33.0203Z" fill="#D9D9D9"/>
</g>
<rect x="0.520264" y="0.5" width="34.6851" height="33" rx="16.5" stroke="#D9D9D9"/>
</svg>
